<svg width="1328" height="902" viewBox="0 0 1328 902" fill="none" xmlns="http://www.w3.org/2000/svg">
<path d="M5.97125 901.083L0.225973 891.448C12.8906 883.825 25.4877 875.875 37.8437 867.86L43.8717 877.209C31.4289 885.356 18.8319 893.306 5.97125 901.083ZM81.0873 852.223L74.7541 843.051C86.9108 834.622 98.8907 825.887 110.848 817.044L117.486 826.039C105.552 834.992 93.3307 843.662 81.0873 852.223ZM152.982 798.788L146.061 790.079C157.601 780.866 169.095 771.434 180.458 761.916L187.684 770.449C176.212 779.989 164.608 789.443 152.982 798.788ZM221.328 740.846L213.819 732.6C224.873 722.69 235.664 712.606 246.3 702.326L254.005 710.418C243.237 720.611 232.36 730.827 221.328 740.846ZM285.842 678.683L277.855 670.877C288.205 660.315 298.401 649.556 308.442 638.602L316.712 646.122C306.584 657.208 296.279 667.989 285.842 678.683ZM346.374 612.671L337.93 605.415C347.577 594.201 357.068 582.79 366.428 571.293L375.155 578.263C365.708 589.892 356.107 601.325 346.374 612.671ZM402.618 542.988L393.718 536.282C402.66 524.415 411.362 512.484 420.04 500.444L429.114 506.888C420.457 519.037 411.669 531.099 402.618 542.988ZM1321.7 344.581C1319.46 343.107 1317.25 341.742 1315.03 340.377L1320.92 330.847C1323.27 332.299 1325.51 333.773 1327.86 335.225L1321.7 344.581ZM1276.23 320.132C1263.11 314.522 1249.13 309.661 1234.86 305.656L1237.77 294.919C1252.5 298.944 1266.99 304.042 1280.61 309.889L1276.23 320.132ZM554.628 468.249L552.047 457.392C565.941 454.072 580.422 450.288 594.791 445.959L598.027 456.681C583.44 461.055 568.872 464.971 554.628 468.249ZM510.534 477C495.65 479.386 480.477 480.92 465.606 481.709L465.015 470.556C479.558 469.835 494.272 468.281 508.827 465.963L510.534 477ZM640.735 442.863L637.084 432.34C650.357 427.667 664.022 422.685 678.776 416.909L682.863 427.342C667.868 433.053 654.117 438.167 640.735 442.863ZM420.256 481.608C404.806 480.693 389.722 478.793 375.245 475.969L377.324 465.063C391.21 467.78 405.943 469.639 420.825 470.557L420.256 481.608ZM454.401 469.897L445.045 463.74C453.196 451.353 461.216 438.88 468.995 426.342L478.524 432.235C470.768 444.882 462.662 457.488 454.401 469.897ZM724.307 410.709L720.024 400.431C733.772 394.749 747.388 388.98 761.114 383.188L765.506 393.444C751.781 399.235 738.055 405.027 724.307 410.709ZM1191.91 296.746C1177.81 294.642 1163.08 293.352 1148.05 292.807L1148.48 281.669C1163.87 282.256 1178.95 283.588 1193.51 285.711L1191.91 296.746ZM806.551 375.983L802.268 365.704C815.994 359.913 829.719 354.121 843.599 348.526L847.773 358.826C834.025 364.509 820.277 370.191 806.551 375.983ZM331.53 463.914C316.753 458.533 302.866 451.943 290.351 444.274L296.135 434.767C308.101 441.98 321.265 448.377 335.296 453.456L331.53 463.914ZM889.089 342.676L885.111 332.221C894.737 328.641 904.254 325.085 913.925 321.724C918.378 320.122 922.854 318.629 927.329 317.137L930.871 327.682C926.395 329.175 922.028 330.644 917.575 332.246C908.145 335.671 898.606 339.119 889.089 342.676ZM1104.06 293.222C1089.86 293.985 1075.02 295.452 1060.04 297.401L1058.56 286.318C1073.86 284.302 1088.92 282.79 1103.46 282.069L1104.06 293.222ZM973.366 315.047L970.458 304.257C984.917 300.365 999.466 296.909 1013.78 293.958L1016.47 304.792C1001.94 307.789 987.607 311.199 973.366 315.047ZM501.44 393.684L491.759 388.163C499.143 375.366 506.263 362.394 513.228 349.227L523.191 354.462C516.116 367.651 508.91 380.754 501.44 393.684ZM254.153 416.204C245.88 408.115 238.432 399.059 231.922 389.582C229.803 386.488 227.794 383.372 225.871 380.123L235.397 374.401C237.165 377.453 239.129 380.351 241.094 383.248C247.273 392.225 254.235 400.584 261.959 408.216L254.153 416.204ZM543.539 314.504L533.447 309.751C539.863 296.128 545.71 282.508 550.706 269.177L561.186 273.052C556.017 286.646 550.128 300.617 543.539 314.504ZM207.42 338.144C205.834 332.662 204.312 326.94 203.141 321.259C201.271 312.191 200.011 302.77 199.276 293.127L210.384 292.317C211.007 301.414 212.286 310.375 214.043 318.897C215.147 324.25 216.492 329.667 218.032 334.93L207.42 338.144ZM574.733 229.941L563.91 227.161C567.78 212.241 570.494 197.786 572.01 184.148L583.087 185.395C581.574 199.601 578.732 214.538 574.733 229.941ZM211.306 248.734L200.229 247.488C201.869 232.799 204.798 217.73 208.91 202.874L219.669 205.894C215.773 220.137 212.95 234.614 211.306 248.734ZM584.258 139.71L573.172 140.629C572.559 133.239 571.532 126.048 570.113 119.165C568.649 112.064 566.638 105.076 564.367 98.4827L574.867 94.723C577.447 101.708 579.57 109.243 581.147 116.89C582.524 124.123 583.664 131.86 584.258 139.71ZM234.518 164.678L224.363 160.167C229.263 149.134 234.799 138.425 240.885 128.173C242.488 125.45 244.113 122.837 245.738 120.224L255.158 126.141C253.533 128.754 251.995 131.235 250.479 133.825C244.544 143.705 239.158 154.041 234.518 164.678ZM543.604 61.3075C540.826 57.7801 537.744 54.4295 534.552 51.1015C527.904 44.272 520.277 38.214 511.934 33.1009L517.827 23.5715C526.961 29.2049 535.27 35.8057 542.49 43.2006C545.968 46.8113 549.336 50.4445 552.4 54.2546L543.604 61.3075ZM280.87 90.6571L272.317 83.4233C282.397 71.55 293.139 60.6791 304.37 51.0741L311.596 59.6064C300.844 68.7711 290.58 79.2016 280.87 90.6571ZM472.414 16.5357C458.721 13.0952 444.36 11.387 429.617 11.6937L429.376 0.581994C445.038 0.313587 460.427 2.03755 475.084 5.73473L472.414 16.5357ZM347.237 34.7175L341.82 25.0149C351.827 19.4205 362.234 14.655 372.625 10.9179C376.445 9.56064 380.201 8.44443 384.066 7.30569L387.084 18.0727C383.524 19.0346 379.9 20.2375 376.385 21.4179C366.517 24.9332 356.744 29.4543 347.237 34.7175Z" fill="#B66DFF" fill-opacity="0.5"/>
</svg>
